<svg xmlns="http://www.w3.org/2000/svg" width="162.5" height="62.5" viewBox="0 0 162.5 62.5">
  <g id="logo" transform="translate(0.5 0.5)">
    <path id="패스_1679" data-name="패스 1679" d="M794.9,6593.859a4.732,4.732,0,0,0-3.54-4.844,5.044,5.044,0,0,1,2.6,4.737c0,.879-.033,31.894-.033,34.057,0,4.441-2.771,5.454-2.771,5.454v-37.9a4.4,4.4,0,0,0-.853-2.718,2.422,2.422,0,0,1-.351,1.054c-.04.06-.107.115-.161.1s-.072-.068-.072-.158c.03-2.558-2.463-2.8-2.967-2.8-.117,0-.468-.028.047.745a5.4,5.4,0,0,1,.7,1.965c.033.2-.13.189-.215.058a5.5,5.5,0,0,0-4.881-2.643c-.117,0-.172.1-.123.122,4.036,1.94,3.878,6.481,3.873,6.581-.013.2-.137.184-.208.05s-1.179-4.779-5.923-6.025c-.158-.04-.211.052-.087.14,1.032.719,1.48,1.9,1.342,3.658a.09.09,0,0,1-.177.032c-.281-1.377-.916-2.719-1.988-3.036a4.839,4.839,0,0,1-2.7.75,4.236,4.236,0,0,1-2.193-.553h-.01a1.81,1.81,0,0,0,.491.388,2.141,2.141,0,0,1,.679.553,1.211,1.211,0,0,1-.077,1.482,1.059,1.059,0,0,1-.711.4.363.363,0,0,1-.388-.347c0-.238.34-.321.43-.542a.556.556,0,0,0-.265-.675,2.96,2.96,0,0,0-1.755-.266,1.44,1.44,0,0,0-.153.008h0a5.938,5.938,0,0,1-5.79-2.428,6.948,6.948,0,0,1-.994-4.694,14.527,14.527,0,0,1,.756-2.9,2.988,2.988,0,0,1-.967-.012,2.907,2.907,0,0,1-.395-.108.059.059,0,0,1-.04-.054.057.057,0,0,1,.035-.053,6.98,6.98,0,0,0,1.6-.979,3.03,3.03,0,0,1-.326-.028,2.662,2.662,0,0,1-.395-.11.059.059,0,0,1-.042-.053.058.058,0,0,1,.035-.053,6.678,6.678,0,0,0,1.425-.841l.005-.013a2.676,2.676,0,0,1-.351-.032,3.212,3.212,0,0,1-.395-.106.066.066,0,0,1-.04-.055.054.054,0,0,1,.035-.054,6.552,6.552,0,0,0,1.166-.654c.14-.341.207-.6.09-.711s-.295-.15-.38-.075c-.137.12-.04.318.188.314-.055.18-.32.19-.478.112-.358-.175-.345-.729-.218-1a1.4,1.4,0,0,1-.258-.5c-.085-.03-.178-.065-.273-.1a3.761,3.761,0,0,1-.981,1.812c.416.231.659.549.578.8-.11.318-.716.4-1.352.187a1.715,1.715,0,0,1-.878-.594c-.2-.23-.138-.761.175-1.264.346-.556.859-.864,1.147-.684.232.143.243.566.053,1.021a2.01,2.01,0,0,0,1.016-1.379c-.4-.181-.776-.393-.721-.548.043-.13.376-.158.751-.128a3.594,3.594,0,0,0-.265-1.033c-.082-.221-.018-.274.037-.3s.175.015.263.233a3.354,3.354,0,0,1,.241,1.129c.09.013.18.03.266.048l.005-.01a1.722,1.722,0,0,1,1.3-1.009,1.129,1.129,0,0,1,.355-1.565,6.812,6.812,0,0,1,1.963.816,1.072,1.072,0,0,1-.708,1.291,2.026,2.026,0,0,1,.363.533.486.486,0,0,0,.846-.25c.06-.23.16-.443.4-.461a1.137,1.137,0,0,1,0,2.221.46.46,0,0,1-.155-.035l-.008,0a.751.751,0,0,1-.236-.423.538.538,0,0,0-.688-.318c.015.152.032.316.033.5.008.411-.038,1.037-.1,1.725a6.789,6.789,0,0,0,.688,1.146.059.059,0,0,1,0,.063.057.057,0,0,1-.06.025,2.975,2.975,0,0,1-.4-.1,3.206,3.206,0,0,1-.326-.15v0a6.861,6.861,0,0,0,.823,1.451.055.055,0,0,1,.005.063.064.064,0,0,1-.065.025,2.705,2.705,0,0,1-.393-.1,2.587,2.587,0,0,1-.3-.139,6.852,6.852,0,0,0,.9,1.644.058.058,0,0,1,0,.067.057.057,0,0,1-.06.025,2.846,2.846,0,0,1-.4-.1,2.883,2.883,0,0,1-.733-.39c-.01,1.044.381,1.424,1.247,1.444H774.9a7.465,7.465,0,0,0-.177-6.156c-.095-.245-.183-.458-.231-.64a1.712,1.712,0,0,1,.228-1.568,2.318,2.318,0,0,1,1.92-.794c1.683.012,2.678.015,2.684.015.148,0,.3,0,.44,0,7.085,0,10.612-1.324,12.329-2.448a1.116,1.116,0,0,1,.515-.211h.022a.2.2,0,0,1,.178.09c.16.235-.177.854-.911,1.362-2.348,1.624-6.04,2.609-10.677,2.846-.233.011-.9.151-.929.611,6-.162,9.274-1.447,10.97-2.5.255-.16.456-.211.566-.148a.17.17,0,0,1,.075.162c-.012.276-.471.926-1.662,1.494a25.866,25.866,0,0,1-9.458,1.917.9.9,0,0,0-.891.6c4.271-.178,8.076-.866,10.184-1.837.32-.148.531-.191.619-.125a.124.124,0,0,1,.045.125,2.608,2.608,0,0,1-1.5,1.221,31.05,31.05,0,0,1-8.756,1.49c-.571.04-.949.237-1.062.553a34.234,34.234,0,0,0,8.974-1.234c.541-.145.691-.063.719.034.067.218-.5.7-1.249.956a29.6,29.6,0,0,1-7.868,1.1,1.114,1.114,0,0,0-1.082.526,26.445,26.445,0,0,0,7.6-.823c.251-.075.37-.006.395.085.058.19-.263.595-1.129.856a23.383,23.383,0,0,1-6.3.748c-.7.02-.956.285-1.077.5,1.122.015,2.228-.018,3.289-.1.475-.037.781.01.859.126a.127.127,0,0,1,.007.133,2.468,2.468,0,0,1-1.69.52c-.633.033-1.307.067-1.992.067-.023,0-.05,0-.075,0a1.048,1.048,0,0,0-.943.443h13.671c5.5,0,7.137-1.235,8.015-1.9,0,0,.153-.142.23-.09s.01.2-.008.236c-.276.548-1.923,3.044-4.245,3.534a7.2,7.2,0,0,1,2.481,5.43v36.057c0,4.956-3.1,6.086-3.1,6.086Zm-19.253-3.539a.107.107,0,0,0-.042.182.11.11,0,0,0,.057.023,1.916,1.916,0,0,1,1.669,1.438.1.1,0,0,0,.1.079h.005a.1.1,0,0,0,.1-.092,1.5,1.5,0,0,0-1.489-1.685A1.427,1.427,0,0,0,775.647,6590.32Zm-2.453,0a.11.11,0,0,0-.078.11.118.118,0,0,0,.035.072.135.135,0,0,0,.062.023,1.912,1.912,0,0,1,1.665,1.438.1.1,0,0,0,.1.079h.005a.108.108,0,0,0,.1-.092,1.5,1.5,0,0,0-1.49-1.685A1.436,1.436,0,0,0,773.194,6590.32Zm-2.454,0a.109.109,0,0,0-.077.11.116.116,0,0,0,.04.072.1.1,0,0,0,.055.023,1.886,1.886,0,0,1,1.061.455,1.866,1.866,0,0,1,.606.984.109.109,0,0,0,.1.079h0a.1.1,0,0,0,.1-.092,1.5,1.5,0,0,0-1.487-1.685A1.467,1.467,0,0,0,770.74,6590.32Zm-2.45,0a.1.1,0,0,0-.078.11.128.128,0,0,0,.035.072.142.142,0,0,0,.062.023,1.907,1.907,0,0,1,1.664,1.438.109.109,0,0,0,.1.079h.007a.1.1,0,0,0,.1-.092,1.5,1.5,0,0,0-1.489-1.685A1.436,1.436,0,0,0,768.29,6590.32Zm11.315-2.578a.1.1,0,0,0-.077.11.1.1,0,0,0,.095.1,1.922,1.922,0,0,1,1.665,1.438.1.1,0,0,0,.1.08h.008a.107.107,0,0,0,.1-.092,1.5,1.5,0,0,0-1.89-1.632Zm-2.451,0a.1.1,0,0,0-.077.11.1.1,0,0,0,.035.072.1.1,0,0,0,.058.023,1.916,1.916,0,0,1,1.667,1.438.1.1,0,0,0,.1.08h.007a.105.105,0,0,0,.1-.092,1.5,1.5,0,0,0-1.888-1.632Zm-2.453,0a.1.1,0,0,0-.077.11.126.126,0,0,0,.033.072.113.113,0,0,0,.062.023,1.927,1.927,0,0,1,1.665,1.438.106.106,0,0,0,.1.08h.007a.107.107,0,0,0,.1-.092,1.5,1.5,0,0,0-1.487-1.687A1.515,1.515,0,0,0,774.7,6587.743Zm-2.45,0a.1.1,0,0,0-.077.11.1.1,0,0,0,.093.1,1.922,1.922,0,0,1,1.664,1.438.107.107,0,0,0,.1.08h.005a.1.1,0,0,0,.1-.092,1.5,1.5,0,0,0-1.887-1.632Zm-2.531.11a.119.119,0,0,0,.037.072.087.087,0,0,0,.058.023,1.927,1.927,0,0,1,1.667,1.438.1.1,0,0,0,.1.08h.008a.1.1,0,0,0,.093-.092,1.5,1.5,0,0,0-1.885-1.632h0A.106.106,0,0,0,769.721,6587.853Zm-2.376-.11a.107.107,0,0,0-.075.11.1.1,0,0,0,.035.072.1.1,0,0,0,.06.023,1.87,1.87,0,0,1,1.059.458,1.892,1.892,0,0,1,.608.981.1.1,0,0,0,.1.08h.007a.105.105,0,0,0,.1-.092,1.5,1.5,0,0,0-1.487-1.687A1.518,1.518,0,0,0,767.345,6587.743Zm22.264-.03a.14.14,0,0,0-.03.055,1.909,1.909,0,0,1-.619.974,1.872,1.872,0,0,1-1.067.44.1.1,0,0,0-.018.2,1.451,1.451,0,0,0,.42.062,1.5,1.5,0,0,0,1.49-1.665.112.112,0,0,0-.1-.1h0A.124.124,0,0,0,789.608,6587.713Zm-2.067,0a.1.1,0,0,0-.037.055,1.9,1.9,0,0,1-1.682,1.414.1.1,0,0,0-.022.2,1.451,1.451,0,0,0,.42.062,1.5,1.5,0,0,0,1.49-1.665.11.11,0,0,0-.1-.1h0A.1.1,0,0,0,787.542,6587.713Zm-2.072,0a.114.114,0,0,0-.035.055,1.887,1.887,0,0,1-.62.974,1.862,1.862,0,0,1-1.062.44.1.1,0,0,0-.023.2,1.479,1.479,0,0,0,.421.062,1.5,1.5,0,0,0,1.492-1.665.114.114,0,0,0-.1-.1h0A.111.111,0,0,0,785.47,6587.713Zm-16.92-3.687c0,.463,0,.373,0,.543a2.121,2.121,0,0,0,2.353,2.359H792c0-.111-.286-.429-1.359-.429H770.906c-.649,0-1.927-.082-1.927-1.93v-1.385s0,0,0,0A.906.906,0,0,0,768.55,6584.026Zm7.7,1.75c.381.017.753.025,1.1.019a1.071,1.071,0,0,1,.366-.5c-.258.005-.6.008-.843.008h0C776.442,6585.3,776.358,6585.488,776.25,6585.776Zm1.444-1.693-.265.007c-.491.02-.546.156-.634.386a.107.107,0,0,0-.01.033c.37.008.734,0,1.082-.008a1,1,0,0,1,.3-.436C778.03,6584.071,777.854,6584.076,777.694,6584.083Zm.478-1.391c-.093,0-.18.005-.255.007a.648.648,0,0,0-.723.531c.381,0,.768-.015,1.151-.028a1.176,1.176,0,0,1,.441-.531Zm.5-1.42-.273.015c-.546.039-.879.225-.994.553.455,0,.9-.017,1.374-.037a1.258,1.258,0,0,1,.5-.574C779.084,6581.242,778.873,6581.255,778.67,6581.271Zm-.093-1.458a1.035,1.035,0,0,0-1.026.6c.506-.02,1.022-.043,1.58-.075a1.089,1.089,0,0,1,.571-.584C779.3,6579.778,778.936,6579.8,778.576,6579.813Zm.3-1.532c-.311.012-1.189.147-1.222.6.593-.01,1.2-.026,1.8-.055.033-.293.358-.5.589-.6C779.65,6578.248,779.261,6578.266,778.878,6578.281Zm-11.052-.313c-.033.177.143.355.388.4s.473-.062.5-.24-.145-.356-.391-.4a.594.594,0,0,0-.108-.01A.367.367,0,0,0,767.826,6577.968ZM729.9,6635.154c-.1-.037-3.094-1.209-3.094-6.084v-36.057a7.206,7.206,0,0,1,2.483-5.43c-2.321-.49-3.966-2.988-4.243-3.536a.377.377,0,0,1-.047-.148v0a.092.092,0,0,1,.04-.082c.075-.054.225.088.225.088.879.663,2.514,1.9,8.015,1.9h.738l.005,0h12.93a1.043,1.043,0,0,0-.939-.444c-.027,0-.055,0-.08,0-.683,0-1.357-.032-1.99-.067a2.46,2.46,0,0,1-1.689-.518.124.124,0,0,1,.005-.133c.078-.118.383-.165.859-.128,1.062.08,2.168.113,3.289.1-.122-.217-.375-.481-1.077-.5a23.352,23.352,0,0,1-6.3-.746c-.868-.263-1.187-.666-1.131-.857.025-.091.142-.16.4-.085a26.307,26.307,0,0,0,7.595.824c-.161-.339-.516-.513-1.081-.528a29.662,29.662,0,0,1-7.868-1.1c-.751-.253-1.315-.74-1.249-.958.027-.1.177-.178.719-.032a34.246,34.246,0,0,0,8.972,1.232c-.113-.314-.486-.511-1.061-.551a31.106,31.106,0,0,1-8.756-1.492,2.6,2.6,0,0,1-1.494-1.221.121.121,0,0,1,.042-.125c.092-.066.3-.021.621.125,2.108.971,5.915,1.659,10.186,1.837a.907.907,0,0,0-.893-.6,25.85,25.85,0,0,1-9.458-1.917c-1.189-.568-1.65-1.217-1.662-1.492a.173.173,0,0,1,.075-.164c.11-.062.31-.01.566.15,1.7,1.053,4.974,2.34,10.972,2.5-.027-.46-.694-.6-.932-.611-4.636-.238-8.328-1.224-10.677-2.848-.734-.508-1.069-1.127-.909-1.362a.209.209,0,0,1,.182-.09h.015a1.1,1.1,0,0,1,.52.213c1.717,1.123,5.239,2.446,12.331,2.446.142,0,.286,0,.435,0,.01,0,1,0,2.686-.015a2.317,2.317,0,0,1,1.92.8,1.709,1.709,0,0,1,.23,1.567,6.359,6.359,0,0,1-.236.641,7.488,7.488,0,0,0-.173,6.156H753.7c.869-.02,1.259-.4,1.249-1.445a2.9,2.9,0,0,1-.731.39,2.731,2.731,0,0,1-.4.1.054.054,0,0,1-.06-.025.058.058,0,0,1,0-.067,6.853,6.853,0,0,0,.906-1.644,2.5,2.5,0,0,1-.3.139,2.467,2.467,0,0,1-.4.1.065.065,0,0,1-.063-.025.058.058,0,0,1,.005-.063,6.888,6.888,0,0,0,.826-1.449l0-.007c-.108.05-.213.112-.328.152a3.488,3.488,0,0,1-.395.1.057.057,0,0,1-.057-.088,6.519,6.519,0,0,0,.686-1.147c-.058-.688-.1-1.314-.1-1.725,0-.187.018-.353.035-.5a.538.538,0,0,0-.686.318.783.783,0,0,1-.241.424l-.007,0a.408.408,0,0,1-.153.035,1.136,1.136,0,0,1,0-2.221c.238.02.34.231.4.461a.484.484,0,0,0,.843.25,1.892,1.892,0,0,1,.365-.531,1.078,1.078,0,0,1-.711-1.292,6.953,6.953,0,0,1,1.963-.814,1.126,1.126,0,0,1,.355,1.563,1.719,1.719,0,0,1,1.3,1.011s0,.007.005.009c.085-.017.175-.034.266-.047a3.392,3.392,0,0,1,.24-1.131c.092-.218.221-.25.266-.231s.117.075.033.3a3.591,3.591,0,0,0-.263,1.031c.373-.03.706,0,.751.128.055.155-.315.368-.719.548a2,2,0,0,0,1.014,1.379c-.192-.453-.18-.877.055-1.019.29-.182.8.128,1.146.683.313.5.378,1.036.178,1.264a1.739,1.739,0,0,1-.881.6c-.636.215-1.244.13-1.352-.188-.083-.251.161-.569.576-.8a3.78,3.78,0,0,1-.979-1.812c-.095.039-.188.074-.271.1a1.434,1.434,0,0,1-.26.5c.127.265.142.821-.218.994-.155.08-.421.068-.478-.112.228,0,.325-.193.188-.314-.085-.075-.27-.028-.381.075s-.05.37.092.711a6.147,6.147,0,0,0,1.167.654.061.061,0,0,1,.033.055.059.059,0,0,1-.042.053,2.857,2.857,0,0,1-.391.106,2.215,2.215,0,0,1-.355.032s.005.01.01.013a6.7,6.7,0,0,0,1.424.843.056.056,0,0,1,.035.053.068.068,0,0,1-.043.053,2.827,2.827,0,0,1-.393.108,2.456,2.456,0,0,1-.33.028,6.9,6.9,0,0,0,1.6.979.059.059,0,0,1,.035.053.061.061,0,0,1-.042.054,2.635,2.635,0,0,1-1.362.12,14.432,14.432,0,0,1,.759,2.9,6.968,6.968,0,0,1-.994,4.694,5.943,5.943,0,0,1-5.793,2.428h0c-.05,0-.1,0-.155-.008a2.968,2.968,0,0,0-1.755.266.561.561,0,0,0-.263.676c.09.22.431.3.431.541a.363.363,0,0,1-.391.347,1.067,1.067,0,0,1-.711-.4,1.218,1.218,0,0,1-.075-1.482,2.156,2.156,0,0,1,.681-.553,1.853,1.853,0,0,0,.49-.388h-.007a4.26,4.26,0,0,1-2.195.553,4.847,4.847,0,0,1-2.7-.748c-1.069.316-1.705,1.659-1.985,3.036a.09.09,0,0,1-.175-.033c-.142-1.753.306-2.939,1.339-3.658.123-.088.072-.18-.085-.138-4.749,1.246-5.85,5.881-5.925,6.024s-.195.15-.208-.052c-.007-.1-.163-4.641,3.872-6.581.05-.02-.007-.122-.12-.122a5.494,5.494,0,0,0-4.881,2.644c-.085.132-.251.142-.215-.06a5.345,5.345,0,0,1,.7-1.965c.516-.773.167-.743.048-.743-.5,0-3,.247-2.967,2.8,0,.09-.012.145-.072.158s-.12-.043-.16-.1a2.409,2.409,0,0,1-.353-1.056,4.4,4.4,0,0,0-.851,2.719v37.9s-2.774-1.012-2.774-5.452c0-2.165-.033-33.179-.033-34.057a5.045,5.045,0,0,1,2.6-4.739,4.733,4.733,0,0,0-3.544,4.844v41.3Zm25.234-44.524a1.516,1.516,0,0,0-.511,1.322.113.113,0,0,0,.1.092h.007a.1.1,0,0,0,.1-.08,1.911,1.911,0,0,1,1.667-1.438.121.121,0,0,0,.06-.023.118.118,0,0,0,.035-.072.1.1,0,0,0-.078-.11,1.5,1.5,0,0,0-1.38.31Zm-2.453,0a1.5,1.5,0,0,0-.508,1.322.107.107,0,0,0,.1.092h0a.1.1,0,0,0,.1-.08,1.917,1.917,0,0,1,1.665-1.438.121.121,0,0,0,.06-.023.1.1,0,0,0,.033-.072.1.1,0,0,0-.075-.11,1.5,1.5,0,0,0-1.382.31Zm-2.451,0a1.49,1.49,0,0,0-.506,1.322.1.1,0,0,0,.1.092h.005a.1.1,0,0,0,.1-.08,1.911,1.911,0,0,1,1.667-1.438.12.12,0,0,0,.06-.023.127.127,0,0,0,.035-.072.106.106,0,0,0-.078-.11,1.483,1.483,0,0,0-.4-.055A1.5,1.5,0,0,0,750.231,6590.63Zm-2.453,0a1.5,1.5,0,0,0-.508,1.322.108.108,0,0,0,.1.092h.005a.1.1,0,0,0,.1-.08,1.911,1.911,0,0,1,1.667-1.438.1.1,0,0,0,.058-.023.1.1,0,0,0,.035-.072.1.1,0,0,0-.075-.11,1.492,1.492,0,0,0-.4-.055A1.508,1.508,0,0,0,747.778,6590.63Zm8.3-2.576a1.5,1.5,0,0,0-.508,1.322.108.108,0,0,0,.1.091h.008a.108.108,0,0,0,.1-.08,1.872,1.872,0,0,1,.6-.982,1.894,1.894,0,0,1,1.061-.458.091.091,0,0,0,.058-.023.109.109,0,0,0,.038-.072.106.106,0,0,0-.077-.108,1.516,1.516,0,0,0-.4-.055A1.5,1.5,0,0,0,756.078,6588.054Zm-2.45,0a1.486,1.486,0,0,0-.508,1.322.1.1,0,0,0,.1.091h.008a.108.108,0,0,0,.1-.08,1.864,1.864,0,0,1,.6-.982,1.9,1.9,0,0,1,1.059-.458.1.1,0,0,0,.062-.023.113.113,0,0,0,.035-.072.1.1,0,0,0-.077-.108,1.517,1.517,0,0,0-.4-.055A1.492,1.492,0,0,0,753.628,6588.054Zm-2.453,0a1.5,1.5,0,0,0-.508,1.322.105.105,0,0,0,.1.091h.008a.1.1,0,0,0,.1-.08,1.926,1.926,0,0,1,1.665-1.44.1.1,0,0,0,.06-.023.123.123,0,0,0,.037-.072.106.106,0,0,0-.077-.108,1.526,1.526,0,0,0-.4-.055A1.5,1.5,0,0,0,751.175,6588.054Zm-2.451,0a1.5,1.5,0,0,0-.51,1.322.108.108,0,0,0,.1.091h.008a.106.106,0,0,0,.1-.08,1.916,1.916,0,0,1,1.665-1.44.1.1,0,0,0,.095-.1.1.1,0,0,0-.077-.108,1.516,1.516,0,0,0-.4-.055A1.491,1.491,0,0,0,748.724,6588.054Zm-2.453,0a1.5,1.5,0,0,0-.508,1.322.107.107,0,0,0,.1.091h.007a.113.113,0,0,0,.1-.08,1.916,1.916,0,0,1,1.664-1.44.088.088,0,0,0,.058-.023.1.1,0,0,0,.037-.072.105.105,0,0,0-.075-.108,1.517,1.517,0,0,0-.4-.055A1.5,1.5,0,0,0,746.271,6588.054Zm-2.453,0a1.5,1.5,0,0,0-.506,1.322.108.108,0,0,0,.1.091h.007a.108.108,0,0,0,.1-.08,1.911,1.911,0,0,1,1.667-1.44.1.1,0,0,0,.057-.023.107.107,0,0,0,.037-.072.1.1,0,0,0-.078-.108,1.5,1.5,0,0,0-1.38.31Zm-4.654-.271a1.5,1.5,0,0,0,1.49,1.667,1.533,1.533,0,0,0,.421-.062.105.105,0,0,0-.022-.206,1.873,1.873,0,0,1-1.067-.44,1.9,1.9,0,0,1-.616-.974.109.109,0,0,0-.033-.053.118.118,0,0,0-.072-.027h0A.114.114,0,0,0,739.164,6587.783Zm-2.07,0a1.494,1.494,0,0,0,1.91,1.6.105.105,0,0,0-.02-.206,1.9,1.9,0,0,1-1.684-1.414.1.1,0,0,0-.035-.053.1.1,0,0,0-.072-.027h0A.109.109,0,0,0,737.094,6587.783Zm-2.07,0a1.5,1.5,0,0,0,1.489,1.667,1.524,1.524,0,0,0,.421-.062.105.105,0,0,0-.018-.206,1.907,1.907,0,0,1-1.687-1.414.092.092,0,0,0-.035-.053.107.107,0,0,0-.07-.027h0A.109.109,0,0,0,735.025,6587.783Zm-2.221-.854h21.1a2.12,2.12,0,0,0,2.353-2.358v-.542a.864.864,0,0,0-.433-.843v1.385c0,1.847-1.277,1.929-1.925,1.929H734.159C733.086,6586.5,732.8,6586.818,732.8,6586.928Zm14.654-1.132c.345.005.713,0,1.1-.02-.107-.286-.193-.473-.62-.473h0c-.243,0-.588,0-.844-.01A1.054,1.054,0,0,1,747.457,6585.8Zm-.52-1.3c.35.012.716.017,1.087.008a.109.109,0,0,1-.012-.033c-.092-.228-.145-.366-.638-.385-.072,0-.163-.006-.263-.008-.158-.007-.335-.012-.471-.018A1.013,1.013,0,0,1,746.938,6584.5Zm-.473-1.3c.38.012.768.022,1.147.027a.649.649,0,0,0-.723-.531l-.258-.007-.609-.02A1.223,1.223,0,0,1,746.465,6583.2Zm-.433-1.4c.468.022.917.034,1.37.039-.113-.33-.446-.515-.989-.555l-.276-.015c-.2-.017-.415-.028-.609-.043A1.287,1.287,0,0,1,746.032,6581.8Zm-.36-1.467c.561.032,1.081.055,1.584.075a1.037,1.037,0,0,0-1.026-.6c-.358-.015-.728-.035-1.127-.062A1.061,1.061,0,0,1,745.672,6580.336Zm-.318-1.5c.6.027,1.2.043,1.8.053-.035-.458-.913-.593-1.224-.6-.383-.013-.774-.033-1.162-.055C744.994,6578.334,745.324,6578.539,745.354,6578.832Zm11.122-1.105c-.245.043-.416.225-.386.4s.256.283.5.24.42-.223.39-.4a.371.371,0,0,0-.395-.251A.889.889,0,0,0,756.476,6577.727Zm-18.887,52.157v-3.725h49.628v3.725Zm119.372-3.815a4.931,4.931,0,0,1-1.489-.954,4.445,4.445,0,0,1-1-1.372,3.912,3.912,0,0,1-.375-1.692,3.988,3.988,0,0,1,.375-1.705,4.4,4.4,0,0,1,1-1.382,5.021,5.021,0,0,1,1.489-.956,4.67,4.67,0,0,1,1.812-.352,4.589,4.589,0,0,1,1.8.352,5.058,5.058,0,0,1,1.479.956,4.424,4.424,0,0,1,1,1.382,4.013,4.013,0,0,1,.375,1.705,3.935,3.935,0,0,1-.375,1.692,4.471,4.471,0,0,1-1,1.372,4.966,4.966,0,0,1-1.479.954,4.556,4.556,0,0,1-1.8.355A4.637,4.637,0,0,1,856.961,6626.069Zm.1-5.733a2.3,2.3,0,0,0-.708,1.693,2.268,2.268,0,0,0,.708,1.682,2.325,2.325,0,0,0,1.694.7,2.365,2.365,0,0,0,1.705-.7,2.259,2.259,0,0,0,.718-1.682,2.292,2.292,0,0,0-.718-1.693,2.349,2.349,0,0,0-1.705-.708A2.31,2.31,0,0,0,857.057,6620.336Zm-22.8,5.755a4.764,4.764,0,0,1-1.457-.889,4.079,4.079,0,0,1-.987-1.317,3.71,3.71,0,0,1-.341-1.577,3.756,3.756,0,0,1,.341-1.6,4.079,4.079,0,0,1,.987-1.317,4.853,4.853,0,0,1,3.235-1.222,4.782,4.782,0,0,1,1.79.332,5.156,5.156,0,0,1,1.469.891,4.235,4.235,0,0,1,.966,1.317,3.756,3.756,0,0,1,.341,1.6,3.71,3.71,0,0,1-.341,1.577,4.235,4.235,0,0,1-.966,1.317,5.076,5.076,0,0,1-1.469.889,4.947,4.947,0,0,1-3.569,0Zm.183-5.38a2.175,2.175,0,0,0,0,3.152,2.278,2.278,0,0,0,3.192,0,2.175,2.175,0,0,0,0-3.152,2.278,2.278,0,0,0-3.192,0Zm-13.6,4.875v-9h-2.488v8.9h-2.163v-18.542h2.163v7.653h2.488v-7.673h2.23v18.667Zm50.3-.363v-5.209h12.346v-1.543H871.138v-1.822H885.8v5.1H873.453v1.585h12.561v1.887Zm-88.5-.556V6599.7h3.092v24.963Zm-8.571,0v-26.452h7.08v26.452Zm-4.581,0v-7.508a2.149,2.149,0,0,0,.5-2.027c-.01-.037-.023-.082-.043-.146l0-.025.005-.012a1.953,1.953,0,0,0,.035-.976l-.012-.045.037-.03a1.088,1.088,0,0,0,.138-.118,1.621,1.621,0,0,0,.466-.882l.008-.028.02-.019a2.035,2.035,0,0,0,.783-1.9l0-.033.02-.027a2.232,2.232,0,0,0,.51-1.61,2.387,2.387,0,0,0-.759-1.542l-.013-.02,0-.012a2.229,2.229,0,0,0-1.464-1.725c-.073-.028-.147-.05-.221-.073v-6.2h3.091v24.961Zm-12.669,0v-6.06a2.336,2.336,0,0,0,1.182.189l.03,0,.023.02a2.18,2.18,0,0,0,1.364.5,2.053,2.053,0,0,0,.976-.255l.023-.015.028.005a2.247,2.247,0,0,0,.533.063,2.059,2.059,0,0,0,1.38-.516l.05-.046.05.046a2.056,2.056,0,0,0,1.38.516,2.233,2.233,0,0,0,.531-.063l.028-.005.027.012a2.011,2.011,0,0,0,.972.258,2.176,2.176,0,0,0,1.364-.5l.025-.02.032,0a2.215,2.215,0,0,0,.233.012,2.3,2.3,0,0,0,.946-.2v6.06Zm-4.581,0V6599.7h3.092v6.2c-.075.021-.147.045-.22.071a2.247,2.247,0,0,0-1.467,1.737l-.012.022-.01.008a2.373,2.373,0,0,0-.751,1.534,2.247,2.247,0,0,0,.51,1.612l.02.026-.005.032a2.045,2.045,0,0,0,.786,1.9l.02.019.007.025a1.634,1.634,0,0,0,.468.884,1.428,1.428,0,0,0,.137.12l.037.03-.01.045a1.984,1.984,0,0,0,.038.987v.023l-.005.01c-.017.057-.03.106-.04.142a2.139,2.139,0,0,0,.5,2.023v7.508Zm-8.571,0v-26.452h7.08v26.452Zm-4.583,0V6599.7h3.094v24.963Zm67.609-1.654v-14.937h7.845v2.035h-5.509v10.867h5.747v2.035Zm-41.745-5.067c-.26-.17-.4-.21-.521-.193a.707.707,0,0,0-.167.052.951.951,0,0,1-1.006-.14,4.575,4.575,0,0,1-.649-2.511c-.008-.2-.012-.363-.012-.473,0-.531.1-1.314.508-.958a4.057,4.057,0,0,1,.966,1.431c.048.122.093.238.128.345a5.194,5.194,0,0,0,.231.709.255.255,0,0,0,.043.059c.072.065.147-.22.007-.75l-.05-.163c-.017-.06-.04-.125-.063-.2-.01-.022-.013-.045-.027-.072-.3-.877-.964-1.42-.966-1.653s.285-.115.383-.072a5.011,5.011,0,0,1,2.108,2.281c.168.308.253.182.218-.045a3.912,3.912,0,0,0-1.374-2.018c-.072-.057-.27-.2-.406-.316s-.11-.267.062-.282c.363-.035.776.185,1.407.64.734.528,1.109,1.1,1.289,1.046.1-.028-.142-.483-.653-.924a5.756,5.756,0,0,0-.964-.671c-.245-.136-.576-.24-.485-.364.173-.243,1.584.07,2.816.583.025.008.042.022.065.032.921.408,1.066.987.9,1.364a.578.578,0,0,0,.013.618,1.026,1.026,0,0,1,.05.158.874.874,0,0,1,0,.49.785.785,0,0,1-.48.558c-.326.085-.335.178-.335.27a.723.723,0,0,1-.145.45,1.024,1.024,0,0,1-1.006.336.652.652,0,0,0-.763.226,1.018,1.018,0,0,1-.673.3A.81.81,0,0,1,764.943,6617.946Zm-6.2-.16a.648.648,0,0,0-.761-.226,1.016,1.016,0,0,1-1.006-.342.716.716,0,0,1-.148-.444c0-.092-.007-.185-.33-.27a.791.791,0,0,1-.483-.558.909.909,0,0,1,0-.486.844.844,0,0,1,.053-.162.565.565,0,0,0,.01-.618c-.165-.376-.025-.956.9-1.364.023-.01.042-.023.065-.032,1.232-.513,2.641-.826,2.816-.583.09.125-.24.228-.485.364a5.756,5.756,0,0,0-.964.671c-.513.441-.753.9-.653.924.182.055.556-.518,1.287-1.046.633-.455,1.046-.674,1.41-.64.17.015.193.172.058.282s-.333.26-.4.316a3.932,3.932,0,0,0-1.374,2.018c-.035.227.047.353.216.045a5.049,5.049,0,0,1,2.113-2.281c.1-.043.385-.175.38.072s-.668.776-.968,1.653c-.008.027-.017.05-.025.072-.025.075-.043.14-.065.2s-.032.107-.047.162c-.142.53-.067.814.008.75a.321.321,0,0,0,.038-.059,5.094,5.094,0,0,0,.233-.709c.037-.107.078-.223.128-.345a4.1,4.1,0,0,1,.966-1.431c.411-.356.508.426.508.958,0,.11-.005.276-.013.473a4.548,4.548,0,0,1-.649,2.511.95.95,0,0,1-1.006.14.641.641,0,0,0-.167-.052c-.122-.017-.26.023-.52.193a.81.81,0,0,1-.448.142A1.032,1.032,0,0,1,758.74,6617.786Zm68.721,0v-1.91h7.4v-1.2h-6.025v-7.565h14.382V6609H831.15v.986h11.981v1.821H831.15v1.031h12.131v1.84h-6.086v1.2h7.415v1.91Zm34.978-.3v-2.27h-2.681v-1.908h2.681v-2.229h-2.681v-1.909h2.681v-2.013h2.313v10.33Zm-13.355-.278v-5.7h7.565v-1.843h-7.565v-1.972h9.86v5.723h-7.567v1.929h7.781v1.865Zm34.4-1.436v-8.851H885.8v8.851Zm-14.339-1.394,5.893-7.565,5.895,7.417-1.67,1.328-4.225-5.4-4.178,5.552Zm-107.156-1.365c-.168-.193-.251-.257-.363-.27a1.272,1.272,0,0,1-.413-.092c-.358-.209-.253-.546-.04-.647a.163.163,0,0,0,.045-.273.38.38,0,0,1-.095-.277.362.362,0,0,1,.167-.248c.067-.042.195-.133.083-.271a.533.533,0,0,1-.085-.148.339.339,0,0,1,.118-.4.228.228,0,0,0,.048-.318.384.384,0,0,1,.168-.584.206.206,0,0,0,.023-.313.4.4,0,0,1,.043-.619c.1-.1.107-.162.02-.3a.335.335,0,0,1,0-.354c.087-.152.341-.187.23-.415a.383.383,0,0,1,0-.426.342.342,0,0,1,.465-.095.171.171,0,0,0,.173.013.241.241,0,0,1,.288.082c.07.079.1.22,0,.426-.112.229.14.263.228.415a.325.325,0,0,1,0,.354c-.088.138-.083.2.017.3a.4.4,0,0,1,.045.619.211.211,0,0,0,.025.313.384.384,0,0,1,.168.584.227.227,0,0,0,.05.318.331.331,0,0,1,.115.4.487.487,0,0,1-.083.148c-.11.138.017.23.083.271a.349.349,0,0,1,.165.248.354.354,0,0,1-.095.277.165.165,0,0,0,.05.273.353.353,0,0,1-.042.647,1.283,1.283,0,0,1-.413.092c-.113.013-.193.073-.365.27a.612.612,0,0,1-.41.175A.624.624,0,0,1,761.989,6613.011Zm6.276.011c-.123-.031-.268-.082-.433-.133a10.523,10.523,0,0,0-2.606-.576c-.118-.01-.6-.04-.525-.218.085-.213.568-.355,1.7-.4.4-.017.754-.014.967-.008a2.4,2.4,0,0,0,.466-.019c.067-.015.075-.042.072-.077s-.022-.046-.072-.071a3.164,3.164,0,0,0-1.281-.144,6.768,6.768,0,0,0-1.975.333c-.14.048-.268.009-.208-.153.07-.183.674-.5,1.655-.774l.075-.021a9.091,9.091,0,0,1,1.412-.265c.1-.013.225-.02.321-.035s.187-.042.172-.1c-.007-.026-.058-.06-.172-.082a1.343,1.343,0,0,0-.275-.026,6.7,6.7,0,0,0-2.529.511l-.05.021c-.148.062-.4.193-.581.248-.128.042-.227-.023-.206-.135a.2.2,0,0,1,.073-.113,3.74,3.74,0,0,1,.513-.363,8.987,8.987,0,0,1,2.248-1c.118-.033.273-.083.506-.143.155-.04.3-.068.275-.178-.038-.144-.718-.037-1.5.229a8.8,8.8,0,0,0-1.853.923c-.19.125-.323.143-.331-.047,0-.145.223-.358.563-.613a11.45,11.45,0,0,1,1.8-1.077c.2-.093.406-.178.516-.235.143-.073.326-.135.295-.223-.038-.126-.246-.13-.914.191a17.583,17.583,0,0,0-2.07,1.189c-.113.077-.233.066-.186-.135a.809.809,0,0,1,.246-.4,15.269,15.269,0,0,1,2.531-2.216,2.707,2.707,0,0,1,.361-.188,1.1,1.1,0,0,1,.573-.106.723.723,0,0,1,.493.295.492.492,0,0,1,.042.057c.077.11.125.25.563.3a1.478,1.478,0,0,1,.348.085,1.025,1.025,0,0,1,.7,1.049c0,.123-.073.215.268.395a1.077,1.077,0,0,1-.063,1.82.343.343,0,0,0-.072.428c.123.293.25.783-.471,1.229-.127.078-.228.15-.236.542a.454.454,0,0,1-.127.31.742.742,0,0,1-.486.176.666.666,0,0,1-.083,0A1.754,1.754,0,0,1,768.265,6613.022Zm-12.253.059a.739.739,0,0,1-.481-.178.418.418,0,0,1-.13-.308c-.01-.393-.113-.465-.238-.543-.723-.446-.591-.936-.471-1.229a.342.342,0,0,0-.068-.428,1.078,1.078,0,0,1-.068-1.82c.345-.178.275-.271.273-.393a1.022,1.022,0,0,1,.7-1.051,1.472,1.472,0,0,1,.343-.085c.441-.055.486-.193.563-.3a.7.7,0,0,1,.045-.057.716.716,0,0,1,.491-.295,1.108,1.108,0,0,1,.573.106,2.969,2.969,0,0,1,.363.188,15.327,15.327,0,0,1,2.529,2.216.8.8,0,0,1,.245.4c.047.2-.073.211-.18.136a17.826,17.826,0,0,0-2.077-1.19c-.668-.321-.873-.318-.914-.191-.028.088.153.15.3.223.108.057.313.143.515.236a11.108,11.108,0,0,1,1.8,1.076c.343.255.568.468.563.613-.008.19-.142.171-.331.047a8.756,8.756,0,0,0-1.855-.921c-.778-.268-1.46-.375-1.5-.231-.032.111.118.138.276.178.23.06.386.11.5.143a8.918,8.918,0,0,1,2.246,1,3.8,3.8,0,0,1,.515.363.213.213,0,0,1,.073.115c.018.11-.078.175-.2.133-.178-.055-.433-.187-.579-.248a.245.245,0,0,1-.053-.021,6.705,6.705,0,0,0-2.529-.511,1.593,1.593,0,0,0-.275.026c-.113.021-.161.055-.17.082-.015.062.06.088.17.1s.218.021.325.035a9.142,9.142,0,0,1,1.41.265c.022.006.047.017.072.021a3.341,3.341,0,0,1,1.659.774c.06.162-.07.2-.21.155a6.7,6.7,0,0,0-1.975-.335,3.157,3.157,0,0,0-1.281.144c-.05.025-.068.05-.07.071-.007.037,0,.062.07.077a2.368,2.368,0,0,0,.466.019c.211-.005.574-.008.969.008,1.131.043,1.61.185,1.7.4.072.178-.406.21-.525.22a10.467,10.467,0,0,0-2.606.575c-.161.053-.31.1-.435.135a1.892,1.892,0,0,1-.448.058Zm7.906-4.4c-.053-.058-.072-.246.053-.491.276-.531.773-1.311.868-1.438a.666.666,0,0,0,.047-.07c.088-.127.153-.262.108-.33s-.191.083-.3.2c-.045.048-.08.091-.117.13a7.1,7.1,0,0,0-.581.748c-.107.156-.261.323-.378.236s-.1-.283-.072-.444c.037-.19.082-.368.132-.54a12.107,12.107,0,0,1,.486-1.221c.052-.122.145-.308.11-.365-.04-.073-.1-.033-.153.023a6.117,6.117,0,0,0-.583,1.006c-.047.1-.163.388-.258.556a.567.567,0,0,0-.028.053c-.067.1-.125.15-.213.093a.25.25,0,0,1-.1-.146,4.066,4.066,0,0,1,.017-1.071c.043-.685.12-1.029,0-1-.155.034-.225.412-.328,1.138a3.344,3.344,0,0,1-.1.551c-.013.043-.06.133-.132.135s-.122-.092-.137-.135a3.8,3.8,0,0,1-.1-.551c-.1-.726-.172-1.1-.326-1.138-.117-.025-.042.32,0,1a4.236,4.236,0,0,1,.012,1.071.23.23,0,0,1-.1.146c-.088.057-.147.01-.208-.093a.231.231,0,0,1-.028-.053c-.1-.168-.215-.453-.261-.556a5.887,5.887,0,0,0-.583-1.006c-.055-.057-.113-.1-.155-.023-.033.057.06.243.11.365a10.963,10.963,0,0,1,.49,1.221,5.439,5.439,0,0,1,.13.54c.03.161.042.363-.072.444s-.27-.08-.38-.236a6.631,6.631,0,0,0-.579-.748c-.037-.039-.073-.082-.115-.13-.108-.117-.251-.27-.295-.2s.018.2.108.33a.367.367,0,0,0,.043.07c.093.128.591.908.869,1.438.122.245.1.433.05.491a.144.144,0,0,1-.11.055.4.4,0,0,1-.251-.143c-.28-.267-1.377-1.347-1.9-1.912-.1-.108-.19-.205-.236-.262-.4-.5-.583-1.848.646-2.035.122-.017.3.042.38-.3a1.264,1.264,0,0,1,1.725-.931c.1.023.216.071.4-.22a1.068,1.068,0,0,1,1.743,0c.183.292.3.243.4.22a1.263,1.263,0,0,1,1.723.931c.073.341.258.283.38.3,1.229.187,1.051,1.534.649,2.035-.048.057-.135.153-.24.262-.526.564-1.622,1.645-1.9,1.912a.411.411,0,0,1-.253.143A.142.142,0,0,1,763.919,6608.684Zm4.018-3.52-.01-.057a2.454,2.454,0,0,0-.138-.533,2.193,2.193,0,0,0-1.346-1.284l-.03-.01-.015-.028a2.394,2.394,0,0,0-2.226-1.394c-.055,0-.112,0-.168.007h-.032l-.025-.02a2.321,2.321,0,0,0-3.091,0l-.023.02H760.8c-.057,0-.115-.007-.168-.007a2.416,2.416,0,0,0-2.228,1.4l-.012.028-.03.008a2.2,2.2,0,0,0-1.347,1.284,2.509,2.509,0,0,0-.138.533l-.01.057-.053.007v-8.446h1.938v-1.789h7.3v1.789h1.938v8.446Zm110.4-3.66v-2.464h-6.772v-1.121H875v-1.5h-4.071V6595.3h9.44v1.124h-4.085v1.5h3.327v3.585Zm-58.207,0v-4.956h-1.37v4.894h-1.192v-10.2h1.192v4.211h1.37v-4.223h1.226V6601.5Zm12.089-.175V6598.2H833.5v2.008H840.5v1.121Zm20.116-.014v-3.434H853.6v2.3h7.152v1.132Zm-39.993-1.229v-8.225h4.318v1.123h-3.032v5.981h3.162v1.121Zm26.677-2.251v-6.581h1.272v2.8h1.475v1.121h-1.475v2.665Zm20.374-.015v-6.579h1.271v6.579Zm-26.916-2.235a2.393,2.393,0,1,1,2.39,2.213A2.308,2.308,0,0,1,832.472,6595.581Zm1.249,0a1.141,1.141,0,1,0,1.141-1.142A1.141,1.141,0,0,0,833.721,6595.581Zm18.317,1.229v-5.277h5.284v5.277Zm1.257-1.09h2.774v-3.081H853.3Zm25.013-1.244v-1.933h-6.651v-1.124h7.928v3.057Zm-46.551-1.362v-1.1h2.418v-.982h1.355v.982h2.433v1.1Z" transform="translate(-725 -6574)" fill="#fff" stroke="rgba(0,0,0,0)" stroke-width="1"/>
    <rect id="사각형_947" data-name="사각형 947" width="162" height="62" fill="none"/>
  </g>
</svg>
